<svg width="81" height="16" viewBox="0 0 81 16" fill="none" xmlns="http://www.w3.org/2000/svg">
<path d="M1 0H81L77.4585 8L81 16H1C0.447715 16 0 15.5523 0 15V1C0 0.447715 0.447715 0 1 0Z" fill="#FFF800"/>
<path d="M54.1192 12.27V10.78H51.1992V9.59L54.5492 5.29H55.4592V9.58H56.3392V10.78H55.4592V12.27H54.1192ZM52.5392 9.58H54.2692V7.32L52.5392 9.58Z" fill="#222222"/>
<path d="M57.2921 8.86V7.65H60.3221V8.86H57.2921Z" fill="#222222"/>
<path d="M65.5918 9.79V11H61.5318V9.79H62.9518V6.76C62.8718 6.86 62.7351 6.96667 62.5418 7.08C62.3551 7.19333 62.1485 7.29 61.9218 7.37C61.7018 7.45 61.5051 7.49 61.3318 7.49V6.24C61.4518 6.24 61.5951 6.20333 61.7618 6.13C61.9351 6.05 62.1051 5.95667 62.2718 5.85C62.4451 5.74333 62.5918 5.64 62.7118 5.54C62.8385 5.43333 62.9185 5.35 62.9518 5.29H64.3218V9.79H65.5918Z" fill="#222222"/>
<path d="M68.9532 12.27V10.78H66.0332V9.59L69.3832 5.29H70.2932V9.58H71.1732V10.78H70.2932V12.27H68.9532ZM67.3732 9.58H69.1032V7.32L67.3732 9.58Z" fill="#222222"/>
<path d="M6.73828 12V4.9H11.5083V6.11H8.11828V7.94H10.9383V9.06H8.11828V12H6.73828Z" fill="#222222"/>
<path d="M15.403 12.05C14.883 12.05 14.4097 11.95 13.983 11.75C13.563 11.55 13.1997 11.28 12.893 10.94C12.593 10.5933 12.3597 10.2067 12.193 9.78C12.0264 9.34667 11.943 8.90333 11.943 8.45C11.943 7.97667 12.0297 7.52667 12.203 7.1C12.3764 6.66667 12.6197 6.28333 12.933 5.95C13.2464 5.61 13.613 5.34333 14.033 5.15C14.4597 4.95 14.9264 4.85 15.433 4.85C15.9464 4.85 16.413 4.95333 16.833 5.16C17.2597 5.36667 17.623 5.64333 17.923 5.99C18.2297 6.33667 18.463 6.72667 18.623 7.16C18.7897 7.58667 18.873 8.02333 18.873 8.47C18.873 8.93667 18.7864 9.38667 18.613 9.82C18.4397 10.2467 18.1964 10.63 17.883 10.97C17.5764 11.3033 17.2097 11.5667 16.783 11.76C16.363 11.9533 15.903 12.05 15.403 12.05ZM13.343 8.45C13.343 8.86333 13.423 9.25 13.583 9.61C13.7497 9.97 13.9864 10.2633 14.293 10.49C14.6064 10.7167 14.9797 10.83 15.413 10.83C15.8597 10.83 16.2364 10.7133 16.543 10.48C16.8497 10.2467 17.083 9.94667 17.243 9.58C17.403 9.21333 17.483 8.83667 17.483 8.45C17.483 8.03667 17.3997 7.65 17.233 7.29C17.0664 6.93 16.8264 6.64 16.513 6.42C16.2064 6.19333 15.8397 6.08 15.413 6.08C14.9664 6.08 14.5897 6.19667 14.283 6.43C13.9764 6.66333 13.743 6.96333 13.583 7.33C13.423 7.69 13.343 8.06333 13.343 8.45Z" fill="#222222"/>
<path d="M19.9316 12V4.9H23.0716C23.3983 4.9 23.6983 4.96667 23.9716 5.1C24.2516 5.23333 24.4916 5.41333 24.6916 5.64C24.8983 5.86666 25.055 6.12 25.1616 6.4C25.275 6.68 25.3316 6.96667 25.3316 7.26C25.3316 7.71333 25.215 8.13 24.9816 8.51C24.755 8.89 24.445 9.16333 24.0516 9.33L25.6716 12H24.1516L22.6916 9.62H21.3116V12H19.9316ZM21.3116 8.41H23.0416C23.3016 8.41 23.515 8.3 23.6816 8.08C23.855 7.85333 23.9416 7.58 23.9416 7.26C23.9416 7.04 23.895 6.84333 23.8016 6.67C23.7083 6.49667 23.5883 6.36 23.4416 6.26C23.3016 6.16 23.1483 6.11 22.9816 6.11H21.3116V8.41Z" fill="#222222"/>
<path d="M30.6019 4.9H32.0019L34.6119 12H33.1919L32.5319 10.23H30.0519L29.4019 12H27.9819L30.6019 4.9ZM32.2819 9.26L31.3019 6.33L30.2819 9.26H32.2819Z" fill="#222222"/>
<path d="M38.0672 12.05C37.6005 12.05 37.1639 11.9567 36.7572 11.77C36.3505 11.5833 35.9905 11.3267 35.6772 11C35.3705 10.6667 35.1305 10.28 34.9572 9.84C34.7839 9.4 34.6972 8.92333 34.6972 8.41C34.6972 7.92333 34.7839 7.46667 34.9572 7.04C35.1305 6.60667 35.3739 6.22667 35.6872 5.9C36.0005 5.57333 36.3672 5.31667 36.7872 5.13C37.2072 4.94333 37.6639 4.85 38.1572 4.85C38.8172 4.85 39.3872 4.99333 39.8672 5.28C40.3472 5.56 40.7072 5.93333 40.9472 6.4L39.9172 7.16C39.7372 6.81333 39.4839 6.54667 39.1572 6.36C38.8372 6.16666 38.4872 6.07 38.1072 6.07C37.7072 6.07 37.3539 6.18 37.0472 6.4C36.7472 6.62 36.5105 6.91 36.3372 7.27C36.1705 7.63 36.0872 8.02333 36.0872 8.45C36.0872 8.89667 36.1772 9.3 36.3572 9.66C36.5372 10.02 36.7839 10.3067 37.0972 10.52C37.4172 10.7267 37.7805 10.83 38.1872 10.83C38.8739 10.83 39.4939 10.5067 40.0472 9.86V9.36H38.6172V8.35H41.1872V12H40.0472V11.2C39.4739 11.7667 38.8139 12.05 38.0672 12.05Z" fill="#222222"/>
<path d="M47.2933 10.79V12H42.3633V4.9H47.2033V6.11H43.7433V7.82H46.7333V8.94H43.7433V10.79H47.2933Z" fill="#222222"/>
</svg>
